<svg xmlns="http://www.w3.org/2000/svg" xmlns:xlink="http://www.w3.org/1999/xlink" width="1569.37" height="1380.57" viewBox="0 0 1569.37 1380.57">
  <defs>
    <style>
      .a, .b, .k, .l {
        opacity: 0.5;
      }

      .a {
        fill: url(#a);
      }

      .b {
        fill: url(#b);
      }

      .c {
        fill: #45e7ff;
      }

      .d {
        fill: #352a69;
      }

      .e {
        fill: #0b0433;
      }

      .f {
        fill: #0a0329;
      }

      .g {
        fill: #d5d1e8;
      }

      .h {
        fill: #8555eb;
      }

      .i {
        fill: #33e0f8;
      }

      .j {
        fill: #44afcc;
      }

      .k {
        fill: none;
        stroke: #fff;
        stroke-linecap: round;
        stroke-linejoin: round;
        stroke-width: 3.22px;
      }

      .m {
        fill: #fff;
      }

      .n {
        fill: #7cbde0;
      }

      .o {
        fill: #4a96ed;
      }

      .p {
        fill: #7a44ff;
      }
    </style>
    <linearGradient id="a" x1="-182.45" y1="462.48" x2="1157.78" y2="462.48" gradientTransform="matrix(1.08, 0.09, -0.1, 1.26, 261.95, 77.59)" gradientUnits="userSpaceOnUse">
      <stop offset="0" stop-color="#937cff"/>
      <stop offset="1" stop-color="#ad95f8"/>
    </linearGradient>
    <linearGradient id="b" x1="-101.15" y1="1208.41" x2="1400.4" y2="1208.41" gradientTransform="matrix(0.97, -0.24, 0.28, 1.12, -188.38, -527.12)" xlink:href="#a"/>
  </defs>
  <g>
    <g>
      <path class="a" d="M1421.47,798.19c-22.48-34.69-49.62-69-53.79-113.84-7.22-77.66,55.38-138.13,80.19-211.31,17.15-50.61,15.22-110-5.12-157.14s-58.66-81-101.35-89.52c-73.46-14.74-151.08,41.74-222.66,17.5-57.31-19.41-98.35-87.28-157.16-99.11-69.21-13.92-133,53.43-201.92,75-82.42,25.83-166.18-15.4-241.62-59.27S363.43,68.12,279.29,79c-93.65,12.15-179,106.11-200.63,221C57.17,413.93,152,514.74,53.78,645.4,23.07,686.23.11,744.74,7.87,798.6c3.77,26.17,17.44,48.41,29.67,70.79S60.41,914.55,58.07,942c-2.81,39.1-29.75,66.85-40,103.9-5.91,22.84-4.56,46.47,2.23,68.11a131.15,131.15,0,0,0,35,56.18c68.2,68.19,164.93,96.56,255.26,64.8,57.42-20.28,111-42.26,170.63-49.67a364.16,364.16,0,0,1,60.22-2.62,436.29,436.29,0,0,1,58.65,6.37c85.59,15.06,162.36,57.35,245.36,85,44.92,15.07,93.75,19.79,135.94-6.37,63.68-40.11,128.93-86.26,204.27-56,51,20.18,105.55,72.13,157.67,45.88,56.71-27.16,23-106,8.86-157.4-11.89-41.16,11.36-86.06,44.11-108.12,21.87-20.3,44.94-40.12,54.26-70.43C1463.7,878.79,1444,832.87,1421.47,798.19Z"/>
      <path class="b" d="M1478.39,529.78c-33.32-26.13-71-50.27-89.78-92.49-32.43-73,9-152.92,9.34-232.41.24-55-21.07-112.06-56.34-151S1257.81-5,1213.28,1.08c-76.62,10.46-134,91.53-211.94,92.12-62.36.47-124.65-51.64-186-43.3-72.21,9.82-112.57,96.8-172.87,141C570.32,243.84,475,232,386.89,214.84s-181.33-37.64-260,1.35C39.3,259.6-13.38,379.69,3,498.68c16.2,117.92,141.88,183.88,88.51,344-16.67,50-20,114.65,5.19,164.37,12.23,24.16,32.86,41.17,52.13,58.8s37.11,36.17,43.79,63.63c10,39-7.24,75-5.11,114.46a125.89,125.89,0,0,0,24.43,65.44,133,133,0,0,0,52.52,42.81c88.95,43.26,192.78,38.19,270.71-23.14,49.49-39.09,94.72-78.52,150.57-105.83a379.18,379.18,0,0,1,58-22.87,454.88,454.88,0,0,1,59.42-13.59c88.58-14.24,177.46,1,267.62-.19,48.84-.51,98.11-12.39,130.8-52,49.14-60.47,97.85-127.33,181.4-123.32,56.44,2.4,126.75,34.48,169.12-8.61,46.55-45.53-12.17-110.71-42.77-156-25.07-36-17-87.47,7.79-119.95,14.75-27.11,30.82-54.16,30-86.75C1546,593.86,1511.7,555.9,1478.39,529.78Z"/>
    </g>
    <g>
      <path class="c" d="M1256.28,346.62a49,49,0,0,0-49-49.05H278.64a49,49,0,0,0-49,49.05V881.38H1256.28Z"/>
      <g>
        <g>
          <rect class="d" x="655.2" y="946.51" width="175.47" height="129.37"/>
          <polygon class="e" points="830.68 997 655.2 985.45 655.2 946.51 830.67 946.51 830.68 997"/>
        </g>
        <path class="c" d="M513.17,1075.88H972.7a26.53,26.53,0,0,1,26.53,26.53v19.85a0,0,0,0,1,0,0H486.65a0,0,0,0,1,0,0v-19.85A26.53,26.53,0,0,1,513.17,1075.88Z"/>
      </g>
      <path class="d" d="M229.6,885.51V901.6a49,49,0,0,0,49,49h928.59a49,49,0,0,0,49-49V885.51Z"/>
      <path class="d" d="M1224.86,346.62A17.65,17.65,0,0,0,1207.23,329H278.64A17.65,17.65,0,0,0,261,346.62v54.76h963.85Z"/>
      <path class="f" d="M261,401.38V845.79a17.65,17.65,0,0,0,17.63,17.63h928.59a17.65,17.65,0,0,0,17.63-17.63V401.38Z"/>
      <rect class="g" x="558.74" y="801.01" width="368.39" height="17.82" rx="7.17"/>
      <rect class="g" x="380.09" y="342.74" width="737.24" height="43.17" rx="15"/>
      <circle class="h" cx="1142.9" cy="364.33" r="7.25"/>
      <circle class="i" cx="1169.71" cy="364.33" r="7.25"/>
      <circle class="j" cx="1196.52" cy="364.33" r="7.25"/>
      <polyline class="k" points="295.07 355.44 280.84 364.33 295.07 373.21"/>
      <polyline class="k" points="310.52 355.44 324.75 364.33 310.52 373.21"/>
      <g class="l">
        <path class="m" d="M353.66,353.38l11.14,10.44H360v11.45H347.35V363.82h-4.83l11.14-10.44m0-3.22a3.21,3.21,0,0,0-2.2.87l-11.14,10.44a3.21,3.21,0,0,0,2.2,5.56h1.62v8.24a3.22,3.22,0,0,0,3.21,3.22H360a3.22,3.22,0,0,0,3.22-3.22V367h1.62a3.21,3.21,0,0,0,2.19-5.56L355.85,351a3.17,3.17,0,0,0-2.19-.87Z"/>
      </g>
      <g>
        <path class="n" d="M439,618.29l5.18,4.53a43.43,43.43,0,0,0-7.54,9.33c-.74,1.2-2.22,3.76-2.22,6.25,0,3.08,2.21,4.46,3.51,5.33s4.18,2.61,4.18,6.64a8.61,8.61,0,0,1-8.63,8.55c-5.34,0-10.42-4.76-10.42-12.44S428.5,628.89,439,618.29Z"/>
        <path class="n" d="M510.7,625.14c.52,1.52-.55,2.44-.85,4.05-.71,3.8-1.74,16.14-1.74,16.14H530.5v8.93H508q-1.31,13.37-1.3,26.81c0,9.94.36,12.57.44,13.18,1.09,8.23,6.41,11.06,11.53,11.06,4.22,0,9.53-1.94,15.35-6.26l3.36,8.54c-5.79,4.25-13.74,7.66-21.9,7.66-7,0-12.36-2.72-15.61-7.3-4-5.62-4-12.51-4-18.65q0-17.46,1.42-35H481.18l.13-8.8h16.31l1.3-18.38Z"/>
        <path class="n" d="M556.18,614.26h12.43a1.41,1.41,0,0,1,.07.45,2.36,2.36,0,0,1-.95,1.61,1.76,1.76,0,0,0-.54,1.44V657.5c5-7.64,13.47-13.72,22.77-13.72a19.7,19.7,0,0,1,18.25,12.09c2.43,5.51,2.47,11.16,2.47,16.51v41.56H600.06v-41.3c0-4.84,0-10.72-3.73-15.15a12,12,0,0,0-9.3-4.34c-7.24,0-13.83,6.06-16.44,9.54-2.85,3.8-3.4,7.15-3.4,11.77v39.48h-11Z"/>
        <path class="n" d="M686.63,668.1a51.4,51.4,0,0,1,.47,13.09H638.47c.82,20.52,14.09,25.57,23.26,25.57a23.63,23.63,0,0,0,17.74-7.71l5.95,5.83c-5.87,7-14.75,10.63-24.53,10.63-18.61,0-32.9-12.22-32.9-35,0-25,15.14-36.72,31.5-36.72C670.73,643.74,683.52,649.7,686.63,668.1Zm-10.14,4.8c1.29-11.11-6.65-20.86-17.75-20.86-7.35,0-17.78,4.7-19.92,20.86Z"/>
        <path class="n" d="M792.32,614.13c.25.91-.57,1.49-.82,1.69a1.75,1.75,0,0,0-.87,1.68V656a24.36,24.36,0,0,1,21.12-12.18c13.47,0,27.55,11.12,27.55,35.06,0,24.86-14.59,36.8-28.64,36.8a24.41,24.41,0,0,1-20.29-10.75l-3.75,9.06h-7V614.13Zm.1,48.94c-1.55,3.77-1.79,8.18-1.79,14.38a110.69,110.69,0,0,0,.42,13.53c1.73,13.06,12.08,14.93,16.77,14.93,6.7,0,20.25-3.83,20.25-24.81,0-24.19-13.64-28.05-20.08-28.05A16.67,16.67,0,0,0,792.42,663.07Z"/>
        <path class="n" d="M911.63,668.1a51.4,51.4,0,0,1,.47,13.09H863.47c.82,20.52,14.09,25.57,23.26,25.57a23.63,23.63,0,0,0,17.74-7.71l5.95,5.83c-5.87,7-14.75,10.63-24.53,10.63-18.61,0-32.9-12.22-32.9-35,0-25,15.14-36.72,31.5-36.72C895.73,643.74,908.51,649.7,911.63,668.1Zm-10.14,4.8c1.29-11.11-6.65-20.86-17.75-20.86-7.35,0-17.78,4.7-19.92,20.86Z"/>
        <path class="n" d="M979.21,664c-.27-.06-.79-.31-.79-1.21a1.77,1.77,0,0,0-.32-1.43,24.74,24.74,0,0,0-19-9.41c-7.75,0-14.43,3.85-14.43,9.36,0,2.3,1.19,5.63,6.78,8.33,6.41,3.1,17.44,4.64,25.19,9,8.11,4.55,10,10.75,10,15.49,0,10.35-9.78,21.4-28.5,21.4-10.41,0-20.89-3.39-28.93-10.87l6.21-10.75a1.39,1.39,0,0,1,.67,1.41,1.84,1.84,0,0,0,.41,1.61A29.37,29.37,0,0,0,958,706.43c9.79,0,17.62-4.42,17.62-10.84,0-2.48-1.18-6.09-6.84-8.73-5-2.37-12.62-4.19-18.41-6.29-3.72-1.34-16.7-5.7-16.7-17.66,0-10.24,10.43-19.13,26.34-19.13,10.14,0,19.24,3.76,25.57,10.74Z"/>
        <path class="n" d="M1035.7,625.14c.52,1.52-.55,2.44-.85,4.05-.71,3.8-1.74,16.14-1.74,16.14h22.39v8.93H1033q-1.31,13.37-1.3,26.81c0,9.94.36,12.57.44,13.18,1.09,8.23,6.41,11.06,11.53,11.06,4.22,0,9.53-1.94,15.35-6.26l3.36,8.54c-5.79,4.25-13.74,7.66-21.9,7.66-7,0-12.36-2.72-15.61-7.3-4-5.62-4-12.51-4-18.65q0-17.46,1.42-35h-16.05l.13-8.8h16.31l1.3-18.38Z"/>
        <path class="n" d="M1100.6,658.92l-5.18-4.53a43.43,43.43,0,0,0,7.54-9.33c.74-1.2,2.22-3.76,2.22-6.25,0-3.08-2.2-4.46-3.51-5.33s-4.18-2.61-4.18-6.64a8.61,8.61,0,0,1,8.63-8.55c5.34,0,10.42,4.76,10.42,12.44S1111.05,648.32,1100.6,658.92Z"/>
      </g>
      <g>
        <path class="g" d="M1104.19,494.09v6.13H1063.1v-6.13Zm0,20.72v6.12H1063.1v-6.12Z"/>
        <g>
          <path class="o" d="M375.42,501.74c-.8-.59-.25-1.53-.63-2.31a14,14,0,0,0-11.82-6c-8.4,0-15.09,6.5-15.09,16.91,0,10.68,6.79,18.14,15.69,18.14a16.18,16.18,0,0,0,12.1-5.53l4.15,4.84A22.92,22.92,0,0,1,363,535.06c-12.92,0-22.51-10.18-22.51-23.95s9.54-23.78,23-23.78c7.35,0,13.49,3.19,17.09,8.46Z"/>
          <path class="o" d="M410.31,535.14c-11.51,0-21.41-9.79-21.41-23.69,0-14.12,10-24.21,21.62-24.21,10.39,0,20.34,8.28,20.34,24.06C430.86,526.44,421.13,535.14,410.31,535.14ZM396.5,510.82c0,11.27,6.58,18.11,13.87,18.11,6.66,0,13.25-5.83,13.25-17.33,0-12.55-7-18.24-13.59-18.24C403.05,493.36,396.5,499.62,396.5,510.82Z"/>
          <path class="o" d="M441.67,488.28H449v8c3.35-5.1,9-9.15,15.18-9.15a13.13,13.13,0,0,1,12.17,8.06c1.62,3.67,1.65,7.44,1.65,11v27.71h-7.08V506.4c0-3.22,0-7.14-2.49-10.1a8,8,0,0,0-6.2-2.89c-4.83,0-9.22,4-11,6.36-1.9,2.53-2.27,4.77-2.27,7.84v26.33h-7.34Z"/>
          <path class="o" d="M523.86,500.62c-.17,0-.52-.2-.52-.8a1.24,1.24,0,0,0-.21-1,16.51,16.51,0,0,0-12.68-6.27c-5.17,0-9.63,2.56-9.63,6.24,0,1.53.79,3.75,4.53,5.55,4.27,2.07,11.62,3.1,16.79,6,5.4,3,6.7,7.16,6.7,10.33,0,6.89-6.52,14.26-19,14.26a28.05,28.05,0,0,1-19.28-7.25l4.14-7.16a.91.91,0,0,1,.44.94,1.26,1.26,0,0,0,.28,1.07,19.58,19.58,0,0,0,14.3,6.36c6.52,0,11.74-2.95,11.74-7.23,0-1.65-.79-4.06-4.56-5.82-3.37-1.58-8.41-2.79-12.28-4.19-2.48-.89-11.13-3.8-11.13-11.78,0-6.82,6.95-12.75,17.57-12.75a22.6,22.6,0,0,1,17,7.16Z"/>
          <path class="o" d="M561.52,474.73c.35,1-.37,1.63-.56,2.7-.47,2.53-1.16,10.76-1.16,10.76h14.93v6h-15q-.87,8.91-.87,17.87a68.06,68.06,0,0,0,.3,8.79c.73,5.48,4.27,7.37,7.68,7.37,2.82,0,6.36-1.29,10.24-4.17l2.24,5.7a25.62,25.62,0,0,1-14.6,5.1c-4.67,0-8.24-1.81-10.41-4.87-2.66-3.74-2.69-8.33-2.69-12.43q0-11.64.95-23.36H541.84l.09-5.87H552.8l.87-12.26Z"/>
        </g>
        <g>
          <path class="p" d="M659.42,488.19v40h10.71v5.79H640.52v-5.79h11.66V494.06h-11v-5.87Zm1.73-14.71a5.18,5.18,0,1,1-5.18-5.14A5.15,5.15,0,0,1,661.15,473.48Z"/>
          <path class="p" d="M707.18,474.73c.35,1-.37,1.63-.57,2.7-.47,2.53-1.15,10.76-1.15,10.76h14.93v6h-15q-.87,8.91-.87,17.87a72.59,72.59,0,0,0,.29,8.79c.74,5.48,4.28,7.37,7.69,7.37,2.82,0,6.36-1.29,10.24-4.17l2.24,5.7a25.62,25.62,0,0,1-14.6,5.1c-4.67,0-8.24-1.81-10.41-4.87-2.66-3.74-2.69-8.33-2.69-12.43q0-11.64,1-23.36H687.5l.09-5.87h10.87l.87-12.26Z"/>
          <path class="p" d="M753,471.62c3.83,0,7.74.05,11.64,1.74a14.65,14.65,0,0,1,9.07,13.49,14.83,14.83,0,0,1-9.23,13.69,17.1,17.1,0,0,1,11.66,16.14,16.61,16.61,0,0,1-10.39,15.38c-4.31,1.83-8.6,1.88-12.84,1.88h-17.6V471.62Zm-10.79,25.81H752c2.78,0,5.76,0,8.63-1.25a9.26,9.26,0,0,0-.26-17.47,21.46,21.46,0,0,0-8.28-1.13h-9.84Zm0,30.38h11.91a18.67,18.67,0,0,0,8-1.26A11.39,11.39,0,0,0,768.86,516a12.26,12.26,0,0,0-7.08-11.15c-3.11-1.47-6.2-1.53-9.35-1.53H742.25Z"/>
          <path class="p" d="M798,488.28l-.26,8.8c3-6.53,9.76-9.9,16.44-9.9a16.83,16.83,0,0,1,12.21,5L823,499.07a19.22,19.22,0,0,1-1.69-2.29,9.26,9.26,0,0,0-7.54-3.43c-3.24,0-8.69,1.14-12.84,7.7-3.11,4.92-3.21,7.95-3.21,10.7V534h-7.25V488.28Z"/>
          <path class="p" d="M855.88,487.24c7.09,0,12.89,2.59,15.89,7.59,2.11,3.52,2.24,7.05,2.24,10.8v28.31h-6.82v-5a26,26,0,0,1-16.4,6.13c-9.55,0-15.37-6.23-15.37-12.93,0-5.07,3.27-10.41,10.47-13.06,5.82-2.13,13-2.06,19.75-2.06h1.47v-1.64c0-2.42,0-5.36-1.49-7.86-1.29-2.12-4-4.4-9.4-4.4-4.22,0-9.36,1.18-13.11,5.09l-3.53-4.57C843.84,489.22,849.72,487.24,855.88,487.24Zm9.85,25.29c-4.75,0-10.87-.3-15,.69-5.73,1.37-8.06,5.1-8.06,8.42,0,4.08,3.54,7.91,9.6,7.91a17.22,17.22,0,0,0,12-5.39,11,11,0,0,0,3.11-8.61v-3Z"/>
          <path class="p" d="M909.42,488.19v40h10.71v5.79H890.52v-5.79h11.66V494.06h-11v-5.87Zm1.73-14.71a5.18,5.18,0,1,1-5.18-5.14A5.15,5.15,0,0,1,911.15,473.48Z"/>
          <path class="p" d="M937.33,488.28h7.34v8c3.35-5.1,9-9.15,15.18-9.15A13.13,13.13,0,0,1,972,495.22c1.62,3.67,1.65,7.44,1.65,11v27.71h-7.08V506.4c0-3.22,0-7.14-2.5-10.1a8,8,0,0,0-6.19-2.89c-4.83,0-9.22,4-11,6.36-1.9,2.53-2.27,4.77-2.27,7.84v26.33h-7.34Z"/>
          <path class="p" d="M1019.52,500.62c-.17,0-.52-.2-.52-.8a1.24,1.24,0,0,0-.21-1,16.51,16.51,0,0,0-12.68-6.27c-5.17,0-9.63,2.56-9.63,6.24,0,1.53.79,3.75,4.53,5.55,4.27,2.07,11.62,3.1,16.79,6,5.4,3,6.7,7.16,6.7,10.33,0,6.89-6.52,14.26-19,14.26a28,28,0,0,1-19.29-7.25l4.14-7.16a.91.91,0,0,1,.44.94,1.26,1.26,0,0,0,.28,1.07,19.58,19.58,0,0,0,14.3,6.36c6.52,0,11.74-2.95,11.74-7.23,0-1.65-.79-4.06-4.56-5.82-3.37-1.58-8.41-2.79-12.28-4.19-2.48-.89-11.13-3.8-11.13-11.78,0-6.82,7-12.75,17.57-12.75a22.6,22.6,0,0,1,17,7.16Z"/>
        </g>
      </g>
    </g>
  </g>
</svg>
