<svg xmlns="http://www.w3.org/2000/svg" xmlns:xlink="http://www.w3.org/1999/xlink" width="1590.58" height="1124.69" viewBox="0 0 1590.58 1124.69">
  <defs>
    <style>
      .a, .b, .k, .l {
        opacity: 0.5;
      }

      .a {
        fill: url(#a);
      }

      .b {
        fill: url(#b);
      }

      .c {
        fill: #ffac45;
      }

      .d {
        fill: #692a62;
      }

      .e {
        fill: #330431;
      }

      .f {
        fill: #290324;
      }

      .g {
        fill: #e8d1e6;
      }

      .h {
        fill: #eb6955;
      }

      .i {
        fill: #f89a33;
      }

      .j {
        fill: #bccc44;
      }

      .k {
        fill: none;
        stroke: #fff;
        stroke-linecap: round;
        stroke-linejoin: round;
        stroke-width: 3.22px;
      }

      .m {
        fill: #fff;
      }

      .n {
        fill: #7ce07c;
      }

      .o {
        fill: #4ac8ed;
      }

      .p {
        fill: #ff4456;
      }
    </style>
    <linearGradient id="a" x1="126.09" y1="583.84" x2="1590.58" y2="583.84" gradientUnits="userSpaceOnUse">
      <stop offset="0" stop-color="#d07cff"/>
      <stop offset="1" stop-color="#f895da"/>
    </linearGradient>
    <linearGradient id="b" x1="0" y1="540.85" x2="1464.49" y2="540.85" xlink:href="#a"/>
  </defs>
  <g>
    <path class="a" d="M1549.15,640.35c-25.4-31.22-55.42-61.66-63.25-104-13.55-73.34,44.39-135.87,63.35-207.49,13.12-49.53,6.35-105.92-17.89-149.13s-65.47-72.37-109-77.11C1347.38,94.41,1274,154.35,1200.21,137c-59.12-13.9-105.83-75.21-165.84-81.78-70.61-7.73-129.2,61.46-196.63,87.5-80.66,31.16-168.11-1.4-247.4-37.13S427.61,30,344,47.08c-93,19-171.06,115.26-183.5,226.34-12.33,110.08,91.1,198.45,3,330.63-27.51,41.3-45.81,98.81-33.65,149.45C141.74,802.7,192,833.82,192.4,885c.29,40.39-31.8,72.52-34.38,112.79-2.22,34.57,18.72,66.53,44.47,82.91s55.61,20.39,84.65,24.1c0,0,284.91,23,431.75,19.55l694.69-16.47c23.8-.57,48.18-1.26,70.35-11.53s42.07-32.26,45.44-60.22c5.75-47.59-36.16-88.9-32.29-136.76,5-61.11,77.45-84.68,91.25-143.85C1598.08,713.68,1574.54,671.56,1549.15,640.35Z"/>
    <path class="b" d="M1423.06,597.35c-25.39-31.21-55.42-61.66-63.25-104-13.55-73.33,44.39-135.87,63.35-207.49,13.12-49.53,6.35-105.92-17.89-149.13s-65.47-72.37-109-77.11C1221.3,51.42,1148,111.36,1074.12,94,1015,80.1,968.29,18.78,908.28,12.22c-70.61-7.73-129.2,61.45-196.63,87.5C631,130.87,543.54,98.31,464.25,62.58S301.52-13,217.93,4.09c-93,19-171.06,115.25-183.5,226.33-12.33,110.08,91.1,198.45,3,330.63C10,602.35-8.33,659.87,3.83,710.5,15.65,759.7,65.94,790.82,66.31,842c.29,40.39-31.8,72.52-34.38,112.79-2.22,34.57,18.73,66.53,44.47,82.91s55.61,20.39,84.65,24.1c0,0,284.91,23,431.75,19.56l694.69-16.48c23.8-.56,48.18-1.26,70.35-11.53s42.07-32.25,45.44-60.22c5.75-47.59-36.16-88.89-32.29-136.75,5-61.12,77.46-84.69,91.25-143.86C1472,670.68,1448.45,628.56,1423.06,597.35Z"/>
    <g>
      <path class="c" d="M1297.2,256.4a49,49,0,0,0-49-49H319.56a49,49,0,0,0-49,49V791.16H1297.2Z"/>
      <g>
        <g>
          <rect class="d" x="696.12" y="856.29" width="175.47" height="129.37"/>
          <polygon class="e" points="871.6 908.78 696.12 895.23 696.12 856.29 871.59 856.29 871.6 908.78"/>
        </g>
        <path class="c" d="M554.09,985.66h459.53a26.53,26.53,0,0,1,26.53,26.53V1032a0,0,0,0,1,0,0H527.57a0,0,0,0,1,0,0v-19.85A26.53,26.53,0,0,1,554.09,985.66Z"/>
      </g>
      <path class="d" d="M270.52,795.29v16.09a49,49,0,0,0,49,49h928.59a49,49,0,0,0,49-49V795.29Z"/>
      <path class="d" d="M1265.78,256.4a17.65,17.65,0,0,0-17.63-17.63H319.56a17.65,17.65,0,0,0-17.63,17.63v54.76h963.85Z"/>
      <path class="f" d="M301.93,311.16v444.4a17.65,17.65,0,0,0,17.63,17.64h928.59a17.65,17.65,0,0,0,17.63-17.64V311.16Z"/>
      <rect class="g" x="599.66" y="710.78" width="368.39" height="17.82" rx="7.17"/>
      <rect class="g" x="421.01" y="252.52" width="737.24" height="43.17" rx="15"/>
      <circle class="h" cx="1183.82" cy="274.1" r="7.25"/>
      <circle class="i" cx="1210.63" cy="274.1" r="7.25"/>
      <circle class="j" cx="1237.44" cy="274.1" r="7.25"/>
      <polyline class="k" points="335.99 265.22 321.76 274.1 335.99 282.99"/>
      <polyline class="k" points="351.44 265.22 365.67 274.1 351.44 282.99"/>
      <g class="l">
        <path class="m" d="M394.57,263.16l11.14,10.43h-4.83v11.46H388.27V273.59h-4.83l11.13-10.43m0-3.22a3.17,3.17,0,0,0-2.19.87l-11.14,10.44a3.21,3.21,0,0,0,2.2,5.56h1.62v8.24a3.21,3.21,0,0,0,3.21,3.21h12.61a3.21,3.21,0,0,0,3.21-3.21v-8.24h1.62a3.21,3.21,0,0,0,2.2-5.56l-11.14-10.44a3.19,3.19,0,0,0-2.2-.87Z"/>
      </g>
      <g>
        <path class="n" d="M479.87,528.06l5.18,4.53a44.34,44.34,0,0,0-7.55,9.33c-.73,1.21-2.22,3.77-2.22,6.25,0,3.09,2.21,4.47,3.52,5.34s4.18,2.6,4.18,6.64a8.61,8.61,0,0,1-8.63,8.55c-5.34,0-10.42-4.76-10.42-12.44S469.42,538.67,479.87,528.06Z"/>
        <path class="n" d="M551.61,534.91c.53,1.52-.55,2.45-.84,4.06-.71,3.79-1.74,16.14-1.74,16.14h22.39V564H548.9q-1.3,13.37-1.3,26.81c0,9.93.36,12.57.44,13.17,1.09,8.23,6.41,11.06,11.53,11.06,4.22,0,9.53-1.93,15.34-6.25l3.37,8.54c-5.79,4.24-13.75,7.65-21.9,7.65-7,0-12.36-2.72-15.61-7.29-4-5.62-4-12.51-4-18.66q0-17.45,1.42-35h-16l.13-8.8h16.31l1.29-18.38Z"/>
        <path class="n" d="M597.1,524h12.43a1.37,1.37,0,0,1,.07.45,2.41,2.41,0,0,1-1,1.61,1.77,1.77,0,0,0-.55,1.44v39.74c5-7.64,13.48-13.73,22.78-13.73a19.69,19.69,0,0,1,18.24,12.1c2.44,5.51,2.48,11.16,2.48,16.51v41.55H641V582.42c0-4.84,0-10.72-3.74-15.15a12,12,0,0,0-9.29-4.34c-7.24,0-13.83,6.06-16.44,9.54-2.85,3.8-3.41,7.15-3.41,11.76v39.48h-11Z"/>
        <path class="n" d="M727.55,577.88A51.32,51.32,0,0,1,728,591H679.39c.81,20.52,14.09,25.58,23.25,25.58a23.6,23.6,0,0,0,17.74-7.71l6,5.82c-5.87,7.06-14.75,10.63-24.53,10.63-18.61,0-32.91-12.21-32.91-35,0-25,15.14-36.72,31.51-36.72C711.65,553.52,724.43,559.48,727.55,577.88Zm-10.14,4.8c1.28-11.11-6.65-20.86-17.75-20.86-7.36,0-17.79,4.7-19.92,20.86Z"/>
        <path class="n" d="M833.23,523.91c.26.9-.56,1.48-.81,1.68a1.76,1.76,0,0,0-.87,1.69v38.44a24.37,24.37,0,0,1,21.12-12.17c13.46,0,27.55,11.12,27.55,35.06,0,24.86-14.59,36.8-28.65,36.8a24.39,24.39,0,0,1-20.28-10.76l-3.75,9.06h-7v-99.8Zm.11,48.93c-1.56,3.77-1.79,8.19-1.79,14.38a110.61,110.61,0,0,0,.42,13.53c1.72,13.07,12.08,14.94,16.76,14.94,6.71,0,20.26-3.83,20.26-24.81,0-24.2-13.65-28-20.08-28A16.67,16.67,0,0,0,833.34,572.84Z"/>
        <path class="n" d="M952.55,577.88A51.32,51.32,0,0,1,953,591H904.39c.81,20.52,14.09,25.58,23.25,25.58a23.6,23.6,0,0,0,17.74-7.71l6,5.82c-5.87,7.06-14.75,10.63-24.53,10.63-18.62,0-32.91-12.21-32.91-35,0-25,15.14-36.72,31.51-36.72C936.64,553.52,949.43,559.48,952.55,577.88Zm-10.14,4.8c1.28-11.11-6.65-20.86-17.75-20.86-7.36,0-17.79,4.7-19.92,20.86Z"/>
        <path class="n" d="M1020.12,573.75a1.09,1.09,0,0,1-.78-1.21,1.76,1.76,0,0,0-.32-1.43,24.71,24.71,0,0,0-19-9.41c-7.75,0-14.44,3.84-14.44,9.36,0,2.3,1.19,5.62,6.79,8.33,6.41,3.09,17.44,4.64,25.19,9,8.1,4.55,10,10.75,10,15.49,0,10.34-9.78,21.4-28.5,21.4-10.41,0-20.89-3.4-28.93-10.88l6.21-10.74a1.38,1.38,0,0,1,.67,1.41,1.82,1.82,0,0,0,.41,1.6,29.33,29.33,0,0,0,21.44,9.55c9.79,0,17.62-4.43,17.62-10.85,0-2.47-1.19-6.08-6.84-8.73-5-2.36-12.62-4.18-18.42-6.28-3.72-1.34-16.69-5.7-16.69-17.67,0-10.23,10.43-19.13,26.34-19.13,10.14,0,19.24,3.77,25.57,10.75Z"/>
        <path class="n" d="M1076.61,534.91c.53,1.52-.55,2.45-.84,4.06-.71,3.79-1.74,16.14-1.74,16.14h22.39V564H1073.9q-1.31,13.37-1.3,26.81c0,9.93.36,12.57.44,13.17,1.09,8.23,6.41,11.06,11.53,11.06,4.22,0,9.53-1.93,15.34-6.25l3.37,8.54c-5.79,4.24-13.75,7.65-21.9,7.65-7,0-12.36-2.72-15.61-7.29-4-5.62-4-12.51-4-18.66q0-17.45,1.42-35H1047.1l.13-8.8h16.31l1.29-18.38Z"/>
        <path class="n" d="M1141.52,568.7l-5.18-4.53a43.43,43.43,0,0,0,7.54-9.33c.73-1.2,2.22-3.77,2.22-6.25,0-3.09-2.21-4.47-3.51-5.33s-4.18-2.61-4.18-6.64a8.62,8.62,0,0,1,8.63-8.56c5.34,0,10.42,4.77,10.42,12.44S1152,558.09,1141.52,568.7Z"/>
      </g>
      <g>
        <path class="g" d="M1145.1,403.87V410H1104v-6.13Zm0,20.71v6.13H1104v-6.13Z"/>
        <g>
          <path class="o" d="M416.33,411.52c-.79-.6-.24-1.54-.63-2.31a14,14,0,0,0-11.81-6c-8.4,0-15.09,6.5-15.09,16.91,0,10.68,6.79,18.14,15.69,18.14a16.23,16.23,0,0,0,12.1-5.53l4.15,4.83a22.88,22.88,0,0,1-16.85,7.25c-12.92,0-22.51-10.17-22.51-23.95s9.54-23.78,23-23.78c7.35,0,13.49,3.19,17.09,8.47Z"/>
          <path class="o" d="M451.23,444.92c-11.52,0-21.41-9.8-21.41-23.7,0-14.11,10-24.2,21.62-24.2,10.39,0,20.34,8.28,20.34,24.05C471.78,436.22,462.05,444.92,451.23,444.92ZM437.42,420.6c0,11.27,6.58,18.11,13.86,18.11,6.67,0,13.26-5.84,13.26-17.34,0-12.54-7-18.23-13.59-18.23C444,403.14,437.42,409.4,437.42,420.6Z"/>
          <path class="o" d="M482.59,398.06h7.34v8c3.35-5.09,9-9.15,15.18-9.15A13.14,13.14,0,0,1,517.28,405c1.62,3.67,1.64,7.44,1.64,11v27.7h-7.07V416.18c0-3.23,0-7.15-2.5-10.1a8,8,0,0,0-6.19-2.9c-4.83,0-9.22,4-11,6.36-1.9,2.54-2.27,4.77-2.27,7.85v26.32h-7.34Z"/>
          <path class="o" d="M564.78,410.4c-.17,0-.52-.21-.52-.81a1.21,1.21,0,0,0-.21-.95,16.51,16.51,0,0,0-12.69-6.27c-5.16,0-9.62,2.56-9.62,6.23,0,1.54.79,3.76,4.52,5.56,4.27,2.06,11.63,3.09,16.8,6,5.4,3,6.7,7.17,6.7,10.33,0,6.9-6.52,14.27-19,14.27a28,28,0,0,1-19.28-7.25l4.14-7.17a.93.93,0,0,1,.44.95,1.2,1.2,0,0,0,.28,1.06,19.53,19.53,0,0,0,14.29,6.37c6.53,0,11.75-2.95,11.75-7.23,0-1.65-.79-4.06-4.56-5.82-3.37-1.58-8.41-2.79-12.28-4.19-2.48-.9-11.13-3.8-11.13-11.78,0-6.83,7-12.76,17.56-12.76a22.61,22.61,0,0,1,17,7.17Z"/>
          <path class="o" d="M602.44,384.51c.35,1-.37,1.63-.57,2.7-.47,2.53-1.16,10.76-1.16,10.76h14.93v6h-15c-.58,5.93-.87,11.9-.87,17.87a72.48,72.48,0,0,0,.29,8.78c.73,5.49,4.28,7.38,7.69,7.38,2.81,0,6.36-1.29,10.23-4.17l2.25,5.69a25.59,25.59,0,0,1-14.61,5.11c-4.66,0-8.23-1.82-10.4-4.87-2.66-3.75-2.7-8.34-2.7-12.44q0-11.64,1-23.35h-10.7l.09-5.87h10.87l.87-12.26Z"/>
        </g>
        <g>
          <path class="p" d="M700.34,398v40h10.71v5.78H681.44v-5.78h11.65V403.84h-11V398Zm1.73-14.71a5.18,5.18,0,1,1-5.18-5.14A5.16,5.16,0,0,1,702.07,383.26Z"/>
          <path class="p" d="M748.1,384.51c.35,1-.37,1.63-.57,2.7-.47,2.53-1.16,10.76-1.16,10.76H761.3v6h-15c-.58,5.93-.87,11.9-.87,17.87a72.48,72.48,0,0,0,.29,8.78c.73,5.49,4.28,7.38,7.69,7.38,2.81,0,6.36-1.29,10.23-4.17l2.25,5.69a25.62,25.62,0,0,1-14.61,5.11c-4.66,0-8.23-1.82-10.4-4.87-2.66-3.75-2.7-8.34-2.7-12.44q0-11.64,1-23.35h-10.7l.09-5.87h10.87l.86-12.26Z"/>
          <path class="p" d="M794,381.4c3.83,0,7.74,0,11.64,1.74a14.63,14.63,0,0,1,9.07,13.48,14.81,14.81,0,0,1-9.24,13.69,17.1,17.1,0,0,1,11.67,16.15,16.6,16.6,0,0,1-10.39,15.37c-4.31,1.83-8.6,1.88-12.84,1.88H776.26V381.4Zm-10.79,25.8h9.75c2.78,0,5.76,0,8.63-1.25a9.26,9.26,0,0,0-.26-17.47,21.46,21.46,0,0,0-8.28-1.13h-9.84Zm0,30.38h11.91a18.45,18.45,0,0,0,8-1.26,11.37,11.37,0,0,0,6.68-10.56,12.25,12.25,0,0,0-7.08-11.15c-3.11-1.48-6.2-1.54-9.35-1.54H783.17Z"/>
          <path class="p" d="M838.86,398.06l-.25,8.8c3-6.53,9.76-9.91,16.44-9.91a16.84,16.84,0,0,1,12.21,5l-3.37,6.9a17.73,17.73,0,0,1-1.69-2.29,9.28,9.28,0,0,0-7.55-3.42c-3.23,0-8.68,1.14-12.83,7.7-3.11,4.91-3.21,7.94-3.21,10.7V443.8h-7.25V398.06Z"/>
          <path class="p" d="M896.8,397c7.09,0,12.89,2.59,15.89,7.59,2.1,3.51,2.24,7.05,2.24,10.79v28.31h-6.82v-5a26,26,0,0,1-16.4,6.12c-9.55,0-15.38-6.22-15.38-12.93,0-5.06,3.27-10.4,10.48-13,5.81-2.14,13-2.07,19.75-2.07H908v-1.63c0-2.43,0-5.37-1.48-7.87-1.29-2.11-4-4.39-9.4-4.39-4.22,0-9.37,1.17-13.11,5.09l-3.54-4.57C884.76,399,890.64,397,896.8,397Zm9.84,25.29c-4.74,0-10.86-.3-15,.69-5.73,1.37-8.06,5.1-8.06,8.42,0,4.08,3.54,7.91,9.6,7.91a17.18,17.18,0,0,0,12-5.4,11,11,0,0,0,3.1-8.6v-3Z"/>
          <path class="p" d="M950.34,398v40h10.71v5.78H931.44v-5.78h11.65V403.84h-11V398Zm1.73-14.71a5.18,5.18,0,1,1-5.18-5.14A5.16,5.16,0,0,1,952.07,383.26Z"/>
          <path class="p" d="M978.25,398.06h7.33v8c3.36-5.09,9-9.15,15.19-9.15a13.12,13.12,0,0,1,12.16,8.07c1.63,3.67,1.65,7.44,1.65,11v27.7h-7.07V416.18c0-3.23,0-7.15-2.5-10.1a8,8,0,0,0-6.19-2.9c-4.83,0-9.22,4-11,6.36-1.9,2.54-2.28,4.77-2.28,7.85v26.32h-7.33Z"/>
          <path class="p" d="M1060.44,410.4c-.18,0-.52-.21-.52-.81a1.21,1.21,0,0,0-.21-.95,16.51,16.51,0,0,0-12.69-6.27c-5.16,0-9.62,2.56-9.62,6.23,0,1.54.79,3.76,4.52,5.56,4.27,2.06,11.63,3.09,16.79,6,5.41,3,6.71,7.17,6.71,10.33,0,6.9-6.52,14.27-19,14.27a28,28,0,0,1-19.28-7.25l4.14-7.17a.93.93,0,0,1,.44.95,1.2,1.2,0,0,0,.28,1.06,19.53,19.53,0,0,0,14.29,6.37c6.53,0,11.75-2.95,11.75-7.23,0-1.65-.79-4.06-4.56-5.82-3.37-1.58-8.41-2.79-12.28-4.19-2.48-.9-11.13-3.8-11.13-11.78,0-6.83,7-12.76,17.56-12.76a22.61,22.61,0,0,1,17.05,7.17Z"/>
        </g>
      </g>
    </g>
  </g>
</svg>
